<mxfile host="app.diagrams.net" modified="2024-01-07T18:11:52.740Z" agent="Mozilla/5.0 (Windows NT 10.0; Win64; x64) AppleWebKit/537.36 (KHTML, like Gecko) Chrome/120.0.0.0 Safari/537.36 Edg/120.0.0.0" etag="P8JVL1YR3b-Ec2M3EsnZ" version="22.1.17" type="device">
  <diagram name="Страница — 1" id="Xvc11uGWG8TuB3zOlgJU">
    <mxGraphModel dx="2545" dy="1407" grid="0" gridSize="10" guides="1" tooltips="1" connect="1" arrows="1" fold="1" page="1" pageScale="1" pageWidth="827" pageHeight="400" math="0" shadow="0">
      <root>
        <mxCell id="0" />
        <mxCell id="1" parent="0" />
        <mxCell id="FQIGWuKP-nZbRHonyzsn-1" value="countries" style="swimlane;fontStyle=1;childLayout=stackLayout;horizontal=1;startSize=26;horizontalStack=0;resizeParent=1;resizeParentMax=0;resizeLast=0;collapsible=1;marginBottom=0;align=center;fontSize=14;swimlaneFillColor=none;glass=0;rounded=0;shadow=0;" vertex="1" parent="1">
          <mxGeometry x="336" y="35" width="160" height="176" as="geometry">
            <mxRectangle x="96" y="73" width="92" height="29" as="alternateBounds" />
          </mxGeometry>
        </mxCell>
        <mxCell id="FQIGWuKP-nZbRHonyzsn-2" value="&lt;u&gt;country_id&lt;/u&gt;" style="text;strokeColor=none;fillColor=none;spacingLeft=4;spacingRight=4;overflow=hidden;rotatable=0;points=[[0,0.5],[1,0.5]];portConstraint=eastwest;fontSize=12;whiteSpace=wrap;html=1;" vertex="1" parent="FQIGWuKP-nZbRHonyzsn-1">
          <mxGeometry y="26" width="160" height="30" as="geometry" />
        </mxCell>
        <mxCell id="FQIGWuKP-nZbRHonyzsn-3" value="country_name" style="text;strokeColor=none;fillColor=none;spacingLeft=4;spacingRight=4;overflow=hidden;rotatable=0;points=[[0,0.5],[1,0.5]];portConstraint=eastwest;fontSize=12;whiteSpace=wrap;html=1;" vertex="1" parent="FQIGWuKP-nZbRHonyzsn-1">
          <mxGeometry y="56" width="160" height="30" as="geometry" />
        </mxCell>
        <mxCell id="FQIGWuKP-nZbRHonyzsn-4" value="r" style="text;strokeColor=none;fillColor=none;spacingLeft=4;spacingRight=4;overflow=hidden;rotatable=0;points=[[0,0.5],[1,0.5]];portConstraint=eastwest;fontSize=12;whiteSpace=wrap;html=1;" vertex="1" parent="FQIGWuKP-nZbRHonyzsn-1">
          <mxGeometry y="86" width="160" height="30" as="geometry" />
        </mxCell>
        <mxCell id="FQIGWuKP-nZbRHonyzsn-8" value="g" style="text;strokeColor=none;fillColor=none;spacingLeft=4;spacingRight=4;overflow=hidden;rotatable=0;points=[[0,0.5],[1,0.5]];portConstraint=eastwest;fontSize=12;whiteSpace=wrap;html=1;" vertex="1" parent="FQIGWuKP-nZbRHonyzsn-1">
          <mxGeometry y="116" width="160" height="30" as="geometry" />
        </mxCell>
        <mxCell id="FQIGWuKP-nZbRHonyzsn-9" value="b" style="text;strokeColor=none;fillColor=none;spacingLeft=4;spacingRight=4;overflow=hidden;rotatable=0;points=[[0,0.5],[1,0.5]];portConstraint=eastwest;fontSize=12;whiteSpace=wrap;html=1;" vertex="1" parent="FQIGWuKP-nZbRHonyzsn-1">
          <mxGeometry y="146" width="160" height="30" as="geometry" />
        </mxCell>
        <mxCell id="FQIGWuKP-nZbRHonyzsn-10" value="infantry" style="swimlane;fontStyle=1;childLayout=stackLayout;horizontal=1;startSize=26;horizontalStack=0;resizeParent=1;resizeParentMax=0;resizeLast=0;collapsible=1;marginBottom=0;align=center;fontSize=14;swimlaneFillColor=none;glass=0;rounded=0;shadow=0;" vertex="1" parent="1">
          <mxGeometry x="629" y="35" width="160" height="266" as="geometry">
            <mxRectangle x="96" y="73" width="92" height="29" as="alternateBounds" />
          </mxGeometry>
        </mxCell>
        <mxCell id="FQIGWuKP-nZbRHonyzsn-11" value="&lt;u&gt;infantry_id&lt;/u&gt;" style="text;strokeColor=none;fillColor=none;spacingLeft=4;spacingRight=4;overflow=hidden;rotatable=0;points=[[0,0.5],[1,0.5]];portConstraint=eastwest;fontSize=12;whiteSpace=wrap;html=1;" vertex="1" parent="FQIGWuKP-nZbRHonyzsn-10">
          <mxGeometry y="26" width="160" height="30" as="geometry" />
        </mxCell>
        <mxCell id="FQIGWuKP-nZbRHonyzsn-13" value="infantry_name" style="text;strokeColor=none;fillColor=none;spacingLeft=4;spacingRight=4;overflow=hidden;rotatable=0;points=[[0,0.5],[1,0.5]];portConstraint=eastwest;fontSize=12;whiteSpace=wrap;html=1;" vertex="1" parent="FQIGWuKP-nZbRHonyzsn-10">
          <mxGeometry y="56" width="160" height="30" as="geometry" />
        </mxCell>
        <mxCell id="FQIGWuKP-nZbRHonyzsn-12" value="country_id" style="text;strokeColor=none;fillColor=none;spacingLeft=4;spacingRight=4;overflow=hidden;rotatable=0;points=[[0,0.5],[1,0.5]];portConstraint=eastwest;fontSize=12;whiteSpace=wrap;html=1;" vertex="1" parent="FQIGWuKP-nZbRHonyzsn-10">
          <mxGeometry y="86" width="160" height="30" as="geometry" />
        </mxCell>
        <mxCell id="FQIGWuKP-nZbRHonyzsn-14" value="count" style="text;strokeColor=none;fillColor=none;spacingLeft=4;spacingRight=4;overflow=hidden;rotatable=0;points=[[0,0.5],[1,0.5]];portConstraint=eastwest;fontSize=12;whiteSpace=wrap;html=1;" vertex="1" parent="FQIGWuKP-nZbRHonyzsn-10">
          <mxGeometry y="116" width="160" height="30" as="geometry" />
        </mxCell>
        <mxCell id="FQIGWuKP-nZbRHonyzsn-15" value="distance" style="text;strokeColor=none;fillColor=none;spacingLeft=4;spacingRight=4;overflow=hidden;rotatable=0;points=[[0,0.5],[1,0.5]];portConstraint=eastwest;fontSize=12;whiteSpace=wrap;html=1;" vertex="1" parent="FQIGWuKP-nZbRHonyzsn-10">
          <mxGeometry y="146" width="160" height="30" as="geometry" />
        </mxCell>
        <mxCell id="FQIGWuKP-nZbRHonyzsn-22" value="way" style="text;strokeColor=none;fillColor=none;spacingLeft=4;spacingRight=4;overflow=hidden;rotatable=0;points=[[0,0.5],[1,0.5]];portConstraint=eastwest;fontSize=12;whiteSpace=wrap;html=1;" vertex="1" parent="FQIGWuKP-nZbRHonyzsn-10">
          <mxGeometry y="176" width="160" height="30" as="geometry" />
        </mxCell>
        <mxCell id="FQIGWuKP-nZbRHonyzsn-23" value="error" style="text;strokeColor=none;fillColor=none;spacingLeft=4;spacingRight=4;overflow=hidden;rotatable=0;points=[[0,0.5],[1,0.5]];portConstraint=eastwest;fontSize=12;whiteSpace=wrap;html=1;" vertex="1" parent="FQIGWuKP-nZbRHonyzsn-10">
          <mxGeometry y="206" width="160" height="30" as="geometry" />
        </mxCell>
        <mxCell id="FQIGWuKP-nZbRHonyzsn-24" value="guard" style="text;strokeColor=none;fillColor=none;spacingLeft=4;spacingRight=4;overflow=hidden;rotatable=0;points=[[0,0.5],[1,0.5]];portConstraint=eastwest;fontSize=12;whiteSpace=wrap;html=1;" vertex="1" parent="FQIGWuKP-nZbRHonyzsn-10">
          <mxGeometry y="236" width="160" height="30" as="geometry" />
        </mxCell>
        <mxCell id="FQIGWuKP-nZbRHonyzsn-25" value="artillery" style="swimlane;fontStyle=1;childLayout=stackLayout;horizontal=1;startSize=26;horizontalStack=0;resizeParent=1;resizeParentMax=0;resizeLast=0;collapsible=1;marginBottom=0;align=center;fontSize=14;swimlaneFillColor=none;glass=0;rounded=0;shadow=0;" vertex="1" parent="1">
          <mxGeometry x="44" y="35" width="160" height="266" as="geometry">
            <mxRectangle x="96" y="73" width="92" height="29" as="alternateBounds" />
          </mxGeometry>
        </mxCell>
        <mxCell id="FQIGWuKP-nZbRHonyzsn-26" value="&lt;u&gt;artillery_id&lt;/u&gt;" style="text;strokeColor=none;fillColor=none;spacingLeft=4;spacingRight=4;overflow=hidden;rotatable=0;points=[[0,0.5],[1,0.5]];portConstraint=eastwest;fontSize=12;whiteSpace=wrap;html=1;" vertex="1" parent="FQIGWuKP-nZbRHonyzsn-25">
          <mxGeometry y="26" width="160" height="30" as="geometry" />
        </mxCell>
        <mxCell id="FQIGWuKP-nZbRHonyzsn-27" value="artillery_name" style="text;strokeColor=none;fillColor=none;spacingLeft=4;spacingRight=4;overflow=hidden;rotatable=0;points=[[0,0.5],[1,0.5]];portConstraint=eastwest;fontSize=12;whiteSpace=wrap;html=1;" vertex="1" parent="FQIGWuKP-nZbRHonyzsn-25">
          <mxGeometry y="56" width="160" height="30" as="geometry" />
        </mxCell>
        <mxCell id="FQIGWuKP-nZbRHonyzsn-28" value="country_id" style="text;strokeColor=none;fillColor=none;spacingLeft=4;spacingRight=4;overflow=hidden;rotatable=0;points=[[0,0.5],[1,0.5]];portConstraint=eastwest;fontSize=12;whiteSpace=wrap;html=1;" vertex="1" parent="FQIGWuKP-nZbRHonyzsn-25">
          <mxGeometry y="86" width="160" height="30" as="geometry" />
        </mxCell>
        <mxCell id="FQIGWuKP-nZbRHonyzsn-29" value="core_distance" style="text;strokeColor=none;fillColor=none;spacingLeft=4;spacingRight=4;overflow=hidden;rotatable=0;points=[[0,0.5],[1,0.5]];portConstraint=eastwest;fontSize=12;whiteSpace=wrap;html=1;" vertex="1" parent="FQIGWuKP-nZbRHonyzsn-25">
          <mxGeometry y="116" width="160" height="30" as="geometry" />
        </mxCell>
        <mxCell id="FQIGWuKP-nZbRHonyzsn-30" value="core_error" style="text;strokeColor=none;fillColor=none;spacingLeft=4;spacingRight=4;overflow=hidden;rotatable=0;points=[[0,0.5],[1,0.5]];portConstraint=eastwest;fontSize=12;whiteSpace=wrap;html=1;" vertex="1" parent="FQIGWuKP-nZbRHonyzsn-25">
          <mxGeometry y="146" width="160" height="30" as="geometry" />
        </mxCell>
        <mxCell id="FQIGWuKP-nZbRHonyzsn-31" value="grapeshot_count" style="text;strokeColor=none;fillColor=none;spacingLeft=4;spacingRight=4;overflow=hidden;rotatable=0;points=[[0,0.5],[1,0.5]];portConstraint=eastwest;fontSize=12;whiteSpace=wrap;html=1;" vertex="1" parent="FQIGWuKP-nZbRHonyzsn-25">
          <mxGeometry y="176" width="160" height="30" as="geometry" />
        </mxCell>
        <mxCell id="FQIGWuKP-nZbRHonyzsn-32" value="grapesgot_distance" style="text;strokeColor=none;fillColor=none;spacingLeft=4;spacingRight=4;overflow=hidden;rotatable=0;points=[[0,0.5],[1,0.5]];portConstraint=eastwest;fontSize=12;whiteSpace=wrap;html=1;" vertex="1" parent="FQIGWuKP-nZbRHonyzsn-25">
          <mxGeometry y="206" width="160" height="30" as="geometry" />
        </mxCell>
        <mxCell id="FQIGWuKP-nZbRHonyzsn-33" value="grapeshot_error" style="text;strokeColor=none;fillColor=none;spacingLeft=4;spacingRight=4;overflow=hidden;rotatable=0;points=[[0,0.5],[1,0.5]];portConstraint=eastwest;fontSize=12;whiteSpace=wrap;html=1;" vertex="1" parent="FQIGWuKP-nZbRHonyzsn-25">
          <mxGeometry y="236" width="160" height="30" as="geometry" />
        </mxCell>
        <mxCell id="FQIGWuKP-nZbRHonyzsn-34" value="" style="edgeStyle=entityRelationEdgeStyle;fontSize=12;html=1;endArrow=ERoneToMany;startArrow=ERmandOne;rounded=0;entryX=1;entryY=0.5;entryDx=0;entryDy=0;" edge="1" parent="1" source="FQIGWuKP-nZbRHonyzsn-1" target="FQIGWuKP-nZbRHonyzsn-29">
          <mxGeometry width="100" height="100" relative="1" as="geometry">
            <mxPoint x="287" y="368" as="sourcePoint" />
            <mxPoint x="387" y="268" as="targetPoint" />
          </mxGeometry>
        </mxCell>
        <mxCell id="FQIGWuKP-nZbRHonyzsn-35" value="" style="edgeStyle=entityRelationEdgeStyle;fontSize=12;html=1;endArrow=ERoneToMany;startArrow=ERmandOne;rounded=0;" edge="1" parent="1" source="FQIGWuKP-nZbRHonyzsn-1" target="FQIGWuKP-nZbRHonyzsn-10">
          <mxGeometry width="100" height="100" relative="1" as="geometry">
            <mxPoint x="477" y="369" as="sourcePoint" />
            <mxPoint x="577" y="269" as="targetPoint" />
          </mxGeometry>
        </mxCell>
      </root>
    </mxGraphModel>
  </diagram>
</mxfile>
